<svg width="1329" height="404" viewBox="0 0 1329 404" fill="none" xmlns="http://www.w3.org/2000/svg">
<path d="M2.16 130.277V100.757H182.88V130.277H101.88L109.62 122.357V330.077H75.42V122.357L82.98 130.277H2.16ZM254.948 334.757C239.228 334.757 225.128 331.337 212.648 324.497C200.288 317.657 190.508 307.457 183.308 293.897C176.108 280.337 172.508 263.597 172.508 243.677C172.508 223.397 176.108 206.537 183.308 193.097C190.508 179.537 200.288 169.337 212.648 162.497C225.128 155.657 239.228 152.237 254.948 152.237C270.428 152.237 284.348 155.657 296.708 162.497C309.068 169.337 318.788 179.537 325.868 193.097C333.068 206.537 336.668 223.397 336.668 243.677C336.668 263.597 333.068 280.337 325.868 293.897C318.788 307.457 309.068 317.657 296.708 324.497C284.348 331.337 270.428 334.757 254.948 334.757ZM253.867 304.877C263.828 304.877 272.408 302.477 279.608 297.677C286.928 292.877 292.508 285.917 296.348 276.797C300.308 267.557 302.288 256.517 302.288 243.677C302.288 223.997 298.268 208.757 290.228 197.957C282.308 187.157 270.848 181.757 255.848 181.757C245.768 181.757 237.068 184.217 229.748 189.137C222.548 193.937 216.968 200.957 213.008 210.197C209.168 219.317 207.248 230.477 207.248 243.677C207.248 262.997 211.268 278.057 219.308 288.857C227.348 299.537 238.868 304.877 253.867 304.877ZM389.475 330.077V84.0171H423.675V330.077H389.475ZM418.815 227.297L501.075 156.917H548.055L418.815 263.117V227.297ZM510.435 330.077L430.155 220.277L463.635 213.257L552.195 330.077H510.435ZM661.705 334.757C645.985 334.757 631.885 331.337 619.405 324.497C607.045 317.657 597.265 307.457 590.065 293.897C582.865 280.337 579.265 263.597 579.265 243.677C579.265 223.397 582.865 206.537 590.065 193.097C597.265 179.537 607.045 169.337 619.405 162.497C631.885 155.657 645.985 152.237 661.705 152.237C677.185 152.237 691.105 155.657 703.465 162.497C715.825 169.337 725.545 179.537 732.625 193.097C739.825 206.537 743.425 223.397 743.425 243.677C743.425 263.597 739.825 280.337 732.625 293.897C725.545 307.457 715.825 317.657 703.465 324.497C691.105 331.337 677.185 334.757 661.705 334.757ZM660.625 304.877C670.585 304.877 679.165 302.477 686.365 297.677C693.685 292.877 699.265 285.917 703.105 276.797C707.065 267.557 709.045 256.517 709.045 243.677C709.045 223.997 705.025 208.757 696.985 197.957C689.065 187.157 677.605 181.757 662.605 181.757C652.525 181.757 643.825 184.217 636.505 189.137C629.305 193.937 623.725 200.957 619.765 210.197C615.925 219.317 614.005 230.477 614.005 243.677C614.005 262.997 618.025 278.057 626.065 288.857C634.105 299.537 645.625 304.877 660.625 304.877Z" fill="#010101"/>
<path d="M871.802 121.534C872.585 120.276 874.415 120.276 875.198 121.534L1004.53 329.259C1005.36 330.591 1004.4 332.316 1002.83 332.316H744.166C742.597 332.316 741.639 330.591 742.468 329.259L871.802 121.534Z" stroke="black" stroke-width="10"/>
<path d="M871.802 177.367C872.585 176.109 874.415 176.109 875.198 177.367L952.388 301.343C953.217 302.675 952.259 304.4 950.69 304.4H796.31C794.741 304.4 793.783 302.675 794.612 301.343L871.802 177.367Z" stroke="black" stroke-width="10"/>
<path d="M871.802 219.414C872.585 218.157 874.415 218.157 875.198 219.414L913.119 280.319C913.948 281.652 912.99 283.376 911.421 283.376H835.579C834.01 283.376 833.052 281.652 833.881 280.319L871.802 219.414Z" stroke="black" stroke-width="10"/>
<path d="M1029.1 333.786V160.086H1063.3V333.786H1029.1ZM1053.94 256.386C1053.94 234.186 1056.22 215.766 1060.78 201.126C1065.46 186.366 1071.94 175.386 1080.22 168.186C1088.62 160.986 1098.46 157.386 1109.74 157.386C1113.1 157.386 1116.22 157.626 1119.1 158.106C1122.1 158.586 1125.04 159.246 1127.92 160.086L1126.66 194.106C1123.42 193.266 1119.88 192.546 1116.04 191.946C1112.32 191.226 1108.9 190.866 1105.78 190.866C1095.94 190.866 1087.9 193.506 1081.66 198.786C1075.42 203.946 1070.8 211.446 1067.8 221.286C1064.8 231.006 1063.3 242.706 1063.3 256.386H1053.94ZM1228.91 338.466C1213.19 338.466 1199.09 335.046 1186.61 328.206C1174.25 321.366 1164.47 311.166 1157.27 297.606C1150.07 284.046 1146.47 267.306 1146.47 247.386C1146.47 227.106 1150.07 210.246 1157.27 196.806C1164.47 183.246 1174.25 173.046 1186.61 166.206C1199.09 159.366 1213.19 155.946 1228.91 155.946C1244.39 155.946 1258.31 159.366 1270.67 166.206C1283.03 173.046 1292.75 183.246 1299.83 196.806C1307.03 210.246 1310.63 227.106 1310.63 247.386C1310.63 267.306 1307.03 284.046 1299.83 297.606C1292.75 311.166 1283.03 321.366 1270.67 328.206C1258.31 335.046 1244.39 338.466 1228.91 338.466ZM1227.83 308.586C1237.79 308.586 1246.37 306.186 1253.57 301.386C1260.89 296.586 1266.47 289.626 1270.31 280.506C1274.27 271.266 1276.25 260.226 1276.25 247.386C1276.25 227.706 1272.23 212.466 1264.19 201.666C1256.27 190.866 1244.81 185.466 1229.81 185.466C1219.73 185.466 1211.03 187.926 1203.71 192.846C1196.51 197.646 1190.93 204.666 1186.97 213.906C1183.13 223.026 1181.21 234.186 1181.21 247.386C1181.21 266.706 1185.23 281.766 1193.27 292.566C1201.31 303.246 1212.83 308.586 1227.83 308.586Z" fill="#010101"/>
</svg>
