<svg width="307" height="310" viewBox="0 0 307 310" fill="none" xmlns="http://www.w3.org/2000/svg">
<path d="M151.768 6C152.538 4.66667 154.462 4.66667 155.232 6L284.703 230.25C285.473 231.583 284.51 233.25 282.971 233.25H24.0292C22.4896 233.25 21.5273 231.583 22.2971 230.25L151.768 6Z" stroke="white" stroke-width="10"/>
<path d="M151.768 66.2104C152.538 64.8771 154.462 64.8771 155.232 66.2104L232.559 200.144C233.329 201.478 232.366 203.144 230.827 203.144H76.1732C74.6336 203.144 73.6713 201.478 74.4411 200.144L151.768 66.2104Z" stroke="white" stroke-width="10"/>
<path d="M151.768 111.555C152.538 110.221 154.462 110.221 155.232 111.555L193.29 177.473C194.06 178.806 193.098 180.473 191.558 180.473H115.442C113.902 180.473 112.94 178.806 113.71 177.473L151.768 111.555Z" stroke="white" stroke-width="10"/>
</svg>
