<svg width="1329" height="425" viewBox="0 0 1329 425" fill="none" xmlns="http://www.w3.org/2000/svg">
<path d="M2.16 130.2V100.68H182.88V130.2H101.88L109.62 122.28V330H75.42V122.28L82.98 130.2H2.16ZM254.948 334.68C239.228 334.68 225.128 331.26 212.648 324.42C200.288 317.58 190.508 307.38 183.308 293.82C176.108 280.26 172.508 263.52 172.508 243.6C172.508 223.32 176.108 206.46 183.308 193.02C190.508 179.46 200.288 169.26 212.648 162.42C225.128 155.58 239.228 152.16 254.948 152.16C270.428 152.16 284.348 155.58 296.708 162.42C309.068 169.26 318.788 179.46 325.868 193.02C333.068 206.46 336.668 223.32 336.668 243.6C336.668 263.52 333.068 280.26 325.868 293.82C318.788 307.38 309.068 317.58 296.708 324.42C284.348 331.26 270.428 334.68 254.948 334.68ZM253.867 304.8C263.828 304.8 272.408 302.4 279.608 297.6C286.928 292.8 292.508 285.84 296.348 276.72C300.308 267.48 302.288 256.44 302.288 243.6C302.288 223.92 298.268 208.68 290.228 197.88C282.308 187.08 270.848 181.68 255.848 181.68C245.768 181.68 237.068 184.14 229.748 189.06C222.548 193.86 216.968 200.88 213.008 210.12C209.168 219.24 207.248 230.4 207.248 243.6C207.248 262.92 211.268 277.98 219.308 288.78C227.348 299.46 238.868 304.8 253.867 304.8ZM389.475 330V83.94H423.675V330H389.475ZM418.815 227.22L501.075 156.84H548.055L418.815 263.04V227.22ZM510.435 330L430.155 220.2L463.635 213.18L552.195 330H510.435ZM661.705 334.68C645.985 334.68 631.885 331.26 619.405 324.42C607.045 317.58 597.265 307.38 590.065 293.82C582.865 280.26 579.265 263.52 579.265 243.6C579.265 223.32 582.865 206.46 590.065 193.02C597.265 179.46 607.045 169.26 619.405 162.42C631.885 155.58 645.985 152.16 661.705 152.16C677.185 152.16 691.105 155.58 703.465 162.42C715.825 169.26 725.545 179.46 732.625 193.02C739.825 206.46 743.425 223.32 743.425 243.6C743.425 263.52 739.825 280.26 732.625 293.82C725.545 307.38 715.825 317.58 703.465 324.42C691.105 331.26 677.185 334.68 661.705 334.68ZM660.625 304.8C670.585 304.8 679.165 302.4 686.365 297.6C693.685 292.8 699.265 285.84 703.105 276.72C707.065 267.48 709.045 256.44 709.045 243.6C709.045 223.92 705.025 208.68 696.985 197.88C689.065 187.08 677.605 181.68 662.605 181.68C652.525 181.68 643.825 184.14 636.505 189.06C629.305 193.86 623.725 200.88 619.765 210.12C615.925 219.24 614.005 230.4 614.005 243.6C614.005 262.92 618.025 277.98 626.065 288.78C634.105 299.46 645.625 304.8 660.625 304.8Z" fill="white"/>
<path d="M871.768 103C872.538 101.667 874.462 101.667 875.232 103L1004.7 327.25C1005.47 328.583 1004.51 330.25 1002.97 330.25H744.029C742.49 330.25 741.527 328.583 742.297 327.25L871.768 103Z" stroke="white" stroke-width="10"/>
<path d="M871.768 163.21C872.538 161.877 874.462 161.877 875.232 163.21L952.559 297.144C953.329 298.478 952.366 300.144 950.827 300.144H796.173C794.634 300.144 793.671 298.478 794.441 297.144L871.768 163.21Z" stroke="white" stroke-width="10"/>
<path d="M871.768 208.555C872.538 207.221 874.462 207.221 875.232 208.555L913.29 274.473C914.06 275.806 913.098 277.473 911.558 277.473H835.442C833.902 277.473 832.94 275.806 833.71 274.473L871.768 208.555Z" stroke="white" stroke-width="10"/>
<path d="M1029.1 334V160.3H1063.3V334H1029.1ZM1053.94 256.6C1053.94 234.4 1056.22 215.98 1060.78 201.34C1065.46 186.58 1071.94 175.6 1080.22 168.4C1088.62 161.2 1098.46 157.6 1109.74 157.6C1113.1 157.6 1116.22 157.84 1119.1 158.32C1122.1 158.8 1125.04 159.46 1127.92 160.3L1126.66 194.32C1123.42 193.48 1119.88 192.76 1116.04 192.16C1112.32 191.44 1108.9 191.08 1105.78 191.08C1095.94 191.08 1087.9 193.72 1081.66 199C1075.42 204.16 1070.8 211.66 1067.8 221.5C1064.8 231.22 1063.3 242.92 1063.3 256.6H1053.94ZM1228.91 338.68C1213.19 338.68 1199.09 335.26 1186.61 328.42C1174.25 321.58 1164.47 311.38 1157.27 297.82C1150.07 284.26 1146.47 267.52 1146.47 247.6C1146.47 227.32 1150.07 210.46 1157.27 197.02C1164.47 183.46 1174.25 173.26 1186.61 166.42C1199.09 159.58 1213.19 156.16 1228.91 156.16C1244.39 156.16 1258.31 159.58 1270.67 166.42C1283.03 173.26 1292.75 183.46 1299.83 197.02C1307.03 210.46 1310.63 227.32 1310.63 247.6C1310.63 267.52 1307.03 284.26 1299.83 297.82C1292.75 311.38 1283.03 321.58 1270.67 328.42C1258.31 335.26 1244.39 338.68 1228.91 338.68ZM1227.83 308.8C1237.79 308.8 1246.37 306.4 1253.57 301.6C1260.89 296.8 1266.47 289.84 1270.31 280.72C1274.27 271.48 1276.25 260.44 1276.25 247.6C1276.25 227.92 1272.23 212.68 1264.19 201.88C1256.27 191.08 1244.81 185.68 1229.81 185.68C1219.73 185.68 1211.03 188.14 1203.71 193.06C1196.51 197.86 1190.93 204.88 1186.97 214.12C1183.13 223.24 1181.21 234.4 1181.21 247.6C1181.21 266.92 1185.23 281.98 1193.27 292.78C1201.31 303.46 1212.83 308.8 1227.83 308.8Z" fill="white"/>
</svg>
